<?xml version="1.0" encoding="UTF-8"?>
<svg xmlns="http://www.w3.org/2000/svg" width="1600" height="980" viewBox="0 0 1600 980">
  <rect x="0" y="0" width="1600" height="980" fill="#06090f" />
  <g id="left_shoulder_ref">
    <line x1="965.71" y1="523.67" x2="1055.85" y2="523.67" stroke="#8fa8c4" stroke-width="0.72" stroke-opacity="0.580" fill="none" stroke-dasharray="6 5" />
    <line x1="1055.85" y1="523.67" x2="1055.85" y2="375.67" stroke="#8fa8c4" stroke-width="0.72" stroke-opacity="0.580" fill="none" stroke-dasharray="6 5" />
    <line x1="1055.85" y1="523.67" x2="1149.33" y2="685.58" stroke="#8fa8c4" stroke-width="0.72" stroke-opacity="0.580" fill="none" stroke-dasharray="6 5" />
    <line x1="895.85" y1="375.67" x2="895.85" y2="402.67" stroke="#8fa8c4" stroke-width="0.72" stroke-opacity="0.580" fill="none" stroke-dasharray="6 5" />
    <line x1="1055.85" y1="375.67" x2="895.85" y2="375.67" stroke="#8fa8c4" stroke-width="0.72" stroke-opacity="0.580" fill="none" stroke-dasharray="6 5" />
    <line x1="1055.85" y1="375.67" x2="1149.33" y2="537.58" stroke="#8fa8c4" stroke-width="0.72" stroke-opacity="0.580" fill="none" stroke-dasharray="6 5" />
    <line x1="1059.19" y1="685.58" x2="1149.33" y2="685.58" stroke="#8fa8c4" stroke-width="0.72" stroke-opacity="0.580" fill="none" stroke-dasharray="6 5" />
    <line x1="1149.33" y1="685.58" x2="1149.33" y2="537.58" stroke="#8fa8c4" stroke-width="0.72" stroke-opacity="0.580" fill="none" stroke-dasharray="6 5" />
    <line x1="895.85" y1="375.67" x2="989.33" y2="537.58" stroke="#8fa8c4" stroke-width="0.72" stroke-opacity="0.580" fill="none" stroke-dasharray="6 5" />
    <line x1="989.33" y1="537.58" x2="989.33" y2="564.58" stroke="#8fa8c4" stroke-width="0.72" stroke-opacity="0.580" fill="none" stroke-dasharray="6 5" />
    <line x1="1149.33" y1="537.58" x2="989.33" y2="537.58" stroke="#8fa8c4" stroke-width="0.72" stroke-opacity="0.580" fill="none" stroke-dasharray="6 5" />
  </g>
  <g id="left_wing_mass">
    <line x1="679.11" y1="321.72" x2="679.11" y2="443.72" stroke="#d7e7fa" stroke-width="0.95" stroke-opacity="0.950" fill="none" />
    <line x1="849.11" y1="321.72" x2="679.11" y2="321.72" stroke="#d7e7fa" stroke-width="0.95" stroke-opacity="0.950" fill="none" />
    <line x1="679.11" y1="443.72" x2="912.81" y2="848.49" stroke="#d7e7fa" stroke-width="0.95" stroke-opacity="0.950" fill="none" />
    <line x1="849.11" y1="321.72" x2="1082.81" y2="726.49" stroke="#d7e7fa" stroke-width="0.95" stroke-opacity="0.950" fill="none" />
    <line x1="679.11" y1="321.72" x2="912.81" y2="726.49" stroke="#d7e7fa" stroke-width="0.95" stroke-opacity="0.950" fill="none" />
    <line x1="912.81" y1="848.49" x2="912.92" y2="848.49" stroke="#d7e7fa" stroke-width="0.95" stroke-opacity="0.950" fill="none" />
    <line x1="954.01" y1="848.49" x2="1082.81" y2="848.49" stroke="#d7e7fa" stroke-width="0.95" stroke-opacity="0.950" fill="none" />
    <line x1="1082.81" y1="848.49" x2="1082.81" y2="726.49" stroke="#d7e7fa" stroke-width="0.95" stroke-opacity="0.950" fill="none" />
    <line x1="912.81" y1="726.49" x2="912.81" y2="848.49" stroke="#d7e7fa" stroke-width="0.95" stroke-opacity="0.950" fill="none" />
    <line x1="1082.81" y1="726.49" x2="954.01" y2="726.49" stroke="#d7e7fa" stroke-width="0.95" stroke-opacity="0.950" fill="none" />
  </g>
  <g id="left_wing_roof">
    <line x1="852.02" y1="317.65" x2="852.02" y2="311.65" stroke="#bcd6ef" stroke-width="0.82" stroke-opacity="0.950" fill="none" />
    <line x1="672.42" y1="317.65" x2="852.02" y2="317.65" stroke="#bcd6ef" stroke-width="0.82" stroke-opacity="0.950" fill="none" />
    <line x1="852.02" y1="311.65" x2="672.42" y2="311.65" stroke="#bcd6ef" stroke-width="0.82" stroke-opacity="0.950" fill="none" />
    <line x1="672.42" y1="311.65" x2="672.42" y2="317.65" stroke="#bcd6ef" stroke-width="0.82" stroke-opacity="0.950" fill="none" />
    <line x1="852.02" y1="317.65" x2="1089.49" y2="728.95" stroke="#bcd6ef" stroke-width="0.82" stroke-opacity="0.950" fill="none" />
    <line x1="852.02" y1="311.65" x2="1089.49" y2="722.95" stroke="#bcd6ef" stroke-width="0.82" stroke-opacity="0.950" fill="none" />
    <line x1="672.42" y1="317.65" x2="909.89" y2="728.95" stroke="#bcd6ef" stroke-width="0.82" stroke-opacity="0.950" fill="none" />
    <line x1="672.42" y1="311.65" x2="909.89" y2="722.95" stroke="#bcd6ef" stroke-width="0.82" stroke-opacity="0.950" fill="none" />
    <line x1="1089.49" y1="728.95" x2="1089.49" y2="722.95" stroke="#bcd6ef" stroke-width="0.82" stroke-opacity="0.950" fill="none" />
    <line x1="909.89" y1="728.95" x2="1089.49" y2="728.95" stroke="#bcd6ef" stroke-width="0.82" stroke-opacity="0.950" fill="none" />
    <line x1="1089.49" y1="722.95" x2="909.89" y2="722.95" stroke="#bcd6ef" stroke-width="0.82" stroke-opacity="0.950" fill="none" />
    <line x1="909.89" y1="722.95" x2="909.89" y2="728.95" stroke="#bcd6ef" stroke-width="0.82" stroke-opacity="0.950" fill="none" />
  </g>
  <g id="left_wing_court_plinth">
    <line x1="1082.81" y1="842.99" x2="1085.58" y2="847.79" stroke="#c8dcf0" stroke-width="0.58" stroke-opacity="0.950" fill="none" />
    <line x1="1082.81" y1="831.79" x2="1085.58" y2="836.59" stroke="#c8dcf0" stroke-width="0.58" stroke-opacity="0.950" fill="none" />
    <line x1="1082.81" y1="847.79" x2="1085.58" y2="847.79" stroke="#c8dcf0" stroke-width="0.58" stroke-opacity="0.950" fill="none" />
    <line x1="1085.58" y1="847.79" x2="1085.58" y2="836.59" stroke="#c8dcf0" stroke-width="0.58" stroke-opacity="0.950" fill="none" />
    <line x1="1085.58" y1="836.59" x2="1082.81" y2="836.59" stroke="#c8dcf0" stroke-width="0.58" stroke-opacity="0.950" fill="none" />
  </g>
  <g id="left_wing_court_cornice">
    <line x1="856.47" y1="334.46" x2="856.47" y2="330.17" stroke="#c8dcf0" stroke-width="0.64" stroke-opacity="0.950" fill="none" />
    <line x1="856.47" y1="330.17" x2="853.98" y2="330.17" stroke="#c8dcf0" stroke-width="0.64" stroke-opacity="0.950" fill="none" />
    <line x1="1082.81" y1="730.99" x2="1086.65" y2="737.64" stroke="#c8dcf0" stroke-width="0.64" stroke-opacity="0.950" fill="none" />
    <line x1="856.47" y1="330.17" x2="1086.65" y2="728.84" stroke="#c8dcf0" stroke-width="0.64" stroke-opacity="0.950" fill="none" />
    <line x1="1082.81" y1="737.64" x2="1086.65" y2="737.64" stroke="#c8dcf0" stroke-width="0.64" stroke-opacity="0.950" fill="none" />
    <line x1="1086.65" y1="737.64" x2="1086.65" y2="728.84" stroke="#c8dcf0" stroke-width="0.64" stroke-opacity="0.950" fill="none" />
    <line x1="1086.65" y1="728.84" x2="1082.81" y2="728.84" stroke="#c8dcf0" stroke-width="0.64" stroke-opacity="0.950" fill="none" />
  </g>
  <g id="left_wing_south_cap">
    <line x1="1080.37" y1="722.26" x2="1080.37" y2="710.55" stroke="#c8dcf0" stroke-width="0.74" stroke-opacity="0.950" fill="none" />
    <line x1="1082.81" y1="728.37" x2="1088.57" y2="738.35" stroke="#c8dcf0" stroke-width="0.74" stroke-opacity="0.950" fill="none" />
    <line x1="1080.37" y1="710.55" x2="1088.57" y2="724.75" stroke="#c8dcf0" stroke-width="0.74" stroke-opacity="0.950" fill="none" />
    <line x1="1088.57" y1="738.35" x2="1088.57" y2="724.75" stroke="#c8dcf0" stroke-width="0.74" stroke-opacity="0.950" fill="none" />
    <line x1="1080.37" y1="710.55" x2="949.03" y2="710.55" stroke="#c8dcf0" stroke-width="0.74" stroke-opacity="0.950" fill="none" />
    <line x1="909.03" y1="710.55" x2="900.77" y2="710.55" stroke="#c8dcf0" stroke-width="0.74" stroke-opacity="0.950" fill="none" />
    <line x1="908.97" y1="738.35" x2="1088.57" y2="738.35" stroke="#c8dcf0" stroke-width="0.74" stroke-opacity="0.950" fill="none" />
    <line x1="1088.57" y1="724.75" x2="908.97" y2="724.75" stroke="#c8dcf0" stroke-width="0.74" stroke-opacity="0.950" fill="none" />
    <line x1="900.77" y1="710.55" x2="900.77" y2="724.15" stroke="#c8dcf0" stroke-width="0.74" stroke-opacity="0.950" fill="none" />
    <line x1="900.77" y1="724.15" x2="908.97" y2="738.35" stroke="#c8dcf0" stroke-width="0.74" stroke-opacity="0.950" fill="none" />
    <line x1="900.77" y1="710.55" x2="908.97" y2="724.75" stroke="#c8dcf0" stroke-width="0.74" stroke-opacity="0.950" fill="none" />
    <line x1="908.97" y1="724.75" x2="908.97" y2="738.35" stroke="#c8dcf0" stroke-width="0.74" stroke-opacity="0.950" fill="none" />
  </g>
  <g id="left_wing_north_cap">
    <line x1="853.23" y1="328.86" x2="853.23" y2="322.34" stroke="#a9c3dd" stroke-width="0.58" stroke-opacity="0.950" fill="none" />
    <line x1="853.23" y1="322.34" x2="860.12" y2="334.27" stroke="#a9c3dd" stroke-width="0.58" stroke-opacity="0.950" fill="none" />
    <line x1="860.12" y1="340.79" x2="860.12" y2="334.27" stroke="#a9c3dd" stroke-width="0.58" stroke-opacity="0.950" fill="none" />
    <line x1="673.63" y1="333.54" x2="679.11" y2="333.54" stroke="#a9c3dd" stroke-width="0.58" stroke-opacity="0.950" fill="none" />
    <line x1="853.23" y1="322.34" x2="849.47" y2="322.34" stroke="#a9c3dd" stroke-width="0.58" stroke-opacity="0.950" fill="none" />
    <line x1="679.11" y1="322.34" x2="673.63" y2="322.34" stroke="#a9c3dd" stroke-width="0.58" stroke-opacity="0.950" fill="none" />
    <line x1="860.12" y1="334.27" x2="856.36" y2="334.27" stroke="#a9c3dd" stroke-width="0.58" stroke-opacity="0.950" fill="none" />
    <line x1="686.36" y1="334.27" x2="680.52" y2="334.27" stroke="#a9c3dd" stroke-width="0.58" stroke-opacity="0.950" fill="none" />
    <line x1="673.63" y1="322.34" x2="673.63" y2="333.54" stroke="#a9c3dd" stroke-width="0.58" stroke-opacity="0.950" fill="none" />
    <line x1="673.63" y1="333.54" x2="680.52" y2="345.47" stroke="#a9c3dd" stroke-width="0.58" stroke-opacity="0.950" fill="none" />
    <line x1="673.63" y1="322.34" x2="680.52" y2="334.27" stroke="#a9c3dd" stroke-width="0.58" stroke-opacity="0.950" fill="none" />
    <line x1="680.52" y1="334.27" x2="680.52" y2="345.47" stroke="#a9c3dd" stroke-width="0.58" stroke-opacity="0.950" fill="none" />
  </g>
  <g id="left_wing_front_return_pavilion">
    <line x1="893.51" y1="814.87" x2="914.01" y2="850.37" stroke="#e1edf9" stroke-width="0.84" stroke-opacity="0.950" fill="none" />
    <line x1="914.01" y1="850.37" x2="954.01" y2="850.37" stroke="#e1edf9" stroke-width="0.84" stroke-opacity="0.950" fill="none" />
    <line x1="893.51" y1="683.67" x2="893.51" y2="814.87" stroke="#e1edf9" stroke-width="0.84" stroke-opacity="0.950" fill="none" />
    <line x1="954.01" y1="850.37" x2="954.01" y2="719.17" stroke="#e1edf9" stroke-width="0.84" stroke-opacity="0.950" fill="none" />
    <line x1="933.51" y1="683.67" x2="893.51" y2="683.67" stroke="#e1edf9" stroke-width="0.84" stroke-opacity="0.950" fill="none" />
    <line x1="914.01" y1="719.17" x2="914.01" y2="850.37" stroke="#e1edf9" stroke-width="0.84" stroke-opacity="0.950" fill="none" />
    <line x1="933.51" y1="683.67" x2="954.01" y2="719.17" stroke="#e1edf9" stroke-width="0.84" stroke-opacity="0.950" fill="none" />
    <line x1="893.51" y1="683.67" x2="914.01" y2="719.17" stroke="#e1edf9" stroke-width="0.84" stroke-opacity="0.950" fill="none" />
    <line x1="954.01" y1="719.17" x2="914.01" y2="719.17" stroke="#e1edf9" stroke-width="0.84" stroke-opacity="0.950" fill="none" />
  </g>
  <g id="left_wing_roof_monitor">
    <line x1="841.65" y1="410.65" x2="841.65" y2="397.05" stroke="#a9c3dd" stroke-width="0.64" stroke-opacity="0.950" fill="none" />
    <line x1="779.65" y1="410.65" x2="841.65" y2="410.65" stroke="#a9c3dd" stroke-width="0.64" stroke-opacity="0.950" fill="none" />
    <line x1="841.65" y1="397.05" x2="779.65" y2="397.05" stroke="#a9c3dd" stroke-width="0.64" stroke-opacity="0.950" fill="none" />
    <line x1="779.65" y1="397.05" x2="779.65" y2="410.65" stroke="#a9c3dd" stroke-width="0.64" stroke-opacity="0.950" fill="none" />
    <line x1="841.65" y1="410.65" x2="876.83" y2="471.58" stroke="#a9c3dd" stroke-width="0.64" stroke-opacity="0.950" fill="none" />
    <line x1="841.65" y1="397.05" x2="876.83" y2="457.98" stroke="#a9c3dd" stroke-width="0.64" stroke-opacity="0.950" fill="none" />
    <line x1="779.65" y1="410.65" x2="814.83" y2="471.58" stroke="#a9c3dd" stroke-width="0.64" stroke-opacity="0.950" fill="none" />
    <line x1="779.65" y1="397.05" x2="814.83" y2="457.98" stroke="#a9c3dd" stroke-width="0.64" stroke-opacity="0.950" fill="none" />
    <line x1="876.83" y1="471.58" x2="876.83" y2="457.98" stroke="#a9c3dd" stroke-width="0.64" stroke-opacity="0.950" fill="none" />
    <line x1="814.83" y1="471.58" x2="876.83" y2="471.58" stroke="#a9c3dd" stroke-width="0.64" stroke-opacity="0.950" fill="none" />
    <line x1="876.83" y1="457.98" x2="814.83" y2="457.98" stroke="#a9c3dd" stroke-width="0.64" stroke-opacity="0.950" fill="none" />
    <line x1="814.83" y1="457.98" x2="814.83" y2="471.58" stroke="#a9c3dd" stroke-width="0.64" stroke-opacity="0.950" fill="none" />
  </g>
  <g id="left_wing_court_pilaster_1">
  </g>
  <g id="left_wing_court_lower_window_1">
  </g>
  <g id="left_wing_court_upper_window_1">
  </g>
  <g id="left_wing_court_pilaster_2">
  </g>
  <g id="left_wing_court_lower_window_2">
  </g>
  <g id="left_wing_court_upper_window_2">
  </g>
  <g id="left_wing_court_pilaster_8">
  </g>
  <g id="left_wing_court_lower_window_8">
  </g>
  <g id="left_wing_court_upper_window_8">
  </g>
  <g id="left_wing_court_pilaster_9">
  </g>
  <g id="left_wing_court_lower_window_9">
  </g>
  <g id="left_wing_court_upper_window_9">
  </g>
  <g id="left_wing_court_pilaster_10">
  </g>
  <g id="left_wing_court_lower_window_10">
  </g>
  <g id="left_wing_court_upper_window_10">
  </g>
  <g id="left_wing_court_pilaster_11">
  </g>
  <g id="left_wing_court_lower_window_11">
  </g>
  <g id="left_wing_court_upper_window_11">
  </g>
  <g id="left_wing_court_pilaster_12">
  </g>
  <g id="left_wing_court_lower_window_12">
  </g>
  <g id="left_wing_court_upper_window_12">
  </g>
  <g id="left_wing_west_window_1">
    <line x1="692.37" y1="444.77" x2="695.17" y2="444.77" stroke="#9fc1df" stroke-width="0.50" stroke-opacity="0.700" fill="none" />
    <line x1="695.17" y1="444.77" x2="702.06" y2="456.70" stroke="#9fc1df" stroke-width="0.50" stroke-opacity="0.700" fill="none" />
    <line x1="692.37" y1="444.77" x2="699.26" y2="456.70" stroke="#9fc1df" stroke-width="0.50" stroke-opacity="0.700" fill="none" />
    <line x1="699.26" y1="456.70" x2="702.06" y2="456.70" stroke="#9fc1df" stroke-width="0.50" stroke-opacity="0.700" fill="none" />
    <line x1="695.17" y1="444.77" x2="695.17" y2="384.77" stroke="#9fc1df" stroke-width="0.50" stroke-opacity="0.700" fill="none" />
    <line x1="692.37" y1="384.77" x2="692.37" y2="444.77" stroke="#9fc1df" stroke-width="0.50" stroke-opacity="0.700" fill="none" />
    <line x1="702.06" y1="456.70" x2="702.06" y2="396.70" stroke="#9fc1df" stroke-width="0.50" stroke-opacity="0.700" fill="none" />
    <line x1="699.26" y1="396.70" x2="699.26" y2="456.70" stroke="#9fc1df" stroke-width="0.50" stroke-opacity="0.700" fill="none" />
    <line x1="695.17" y1="384.77" x2="692.37" y2="384.77" stroke="#9fc1df" stroke-width="0.50" stroke-opacity="0.700" fill="none" />
    <line x1="695.17" y1="384.77" x2="702.06" y2="396.70" stroke="#9fc1df" stroke-width="0.50" stroke-opacity="0.700" fill="none" />
    <line x1="692.37" y1="384.77" x2="699.26" y2="396.70" stroke="#9fc1df" stroke-width="0.50" stroke-opacity="0.700" fill="none" />
    <line x1="702.06" y1="396.70" x2="699.26" y2="396.70" stroke="#9fc1df" stroke-width="0.50" stroke-opacity="0.700" fill="none" />
  </g>
  <g id="left_wing_west_window_7">
    <line x1="837.96" y1="696.95" x2="840.76" y2="696.95" stroke="#9fc1df" stroke-width="0.50" stroke-opacity="0.700" fill="none" />
    <line x1="840.76" y1="696.95" x2="847.65" y2="708.88" stroke="#9fc1df" stroke-width="0.50" stroke-opacity="0.700" fill="none" />
    <line x1="837.96" y1="696.95" x2="844.85" y2="708.88" stroke="#9fc1df" stroke-width="0.50" stroke-opacity="0.700" fill="none" />
    <line x1="844.85" y1="708.88" x2="847.65" y2="708.88" stroke="#9fc1df" stroke-width="0.50" stroke-opacity="0.700" fill="none" />
    <line x1="840.76" y1="696.95" x2="840.76" y2="636.95" stroke="#9fc1df" stroke-width="0.50" stroke-opacity="0.700" fill="none" />
    <line x1="837.96" y1="636.95" x2="837.96" y2="696.95" stroke="#9fc1df" stroke-width="0.50" stroke-opacity="0.700" fill="none" />
    <line x1="847.65" y1="708.88" x2="847.65" y2="648.88" stroke="#9fc1df" stroke-width="0.50" stroke-opacity="0.700" fill="none" />
    <line x1="844.85" y1="648.88" x2="844.85" y2="708.88" stroke="#9fc1df" stroke-width="0.50" stroke-opacity="0.700" fill="none" />
    <line x1="840.76" y1="636.95" x2="837.96" y2="636.95" stroke="#9fc1df" stroke-width="0.50" stroke-opacity="0.700" fill="none" />
    <line x1="840.76" y1="636.95" x2="847.65" y2="648.88" stroke="#9fc1df" stroke-width="0.50" stroke-opacity="0.700" fill="none" />
    <line x1="837.96" y1="636.95" x2="844.85" y2="648.88" stroke="#9fc1df" stroke-width="0.50" stroke-opacity="0.700" fill="none" />
    <line x1="847.65" y1="648.88" x2="844.85" y2="648.88" stroke="#9fc1df" stroke-width="0.50" stroke-opacity="0.700" fill="none" />
  </g>
  <g id="left_wing_west_window_8">
    <line x1="862.23" y1="738.97" x2="865.03" y2="738.97" stroke="#9fc1df" stroke-width="0.50" stroke-opacity="0.700" fill="none" />
    <line x1="865.03" y1="738.97" x2="871.91" y2="750.90" stroke="#9fc1df" stroke-width="0.50" stroke-opacity="0.700" fill="none" />
    <line x1="862.23" y1="738.97" x2="869.11" y2="750.90" stroke="#9fc1df" stroke-width="0.50" stroke-opacity="0.700" fill="none" />
    <line x1="869.11" y1="750.90" x2="871.91" y2="750.90" stroke="#9fc1df" stroke-width="0.50" stroke-opacity="0.700" fill="none" />
    <line x1="865.03" y1="738.97" x2="865.03" y2="678.97" stroke="#9fc1df" stroke-width="0.50" stroke-opacity="0.700" fill="none" />
    <line x1="862.23" y1="678.97" x2="862.23" y2="738.97" stroke="#9fc1df" stroke-width="0.50" stroke-opacity="0.700" fill="none" />
    <line x1="871.91" y1="750.90" x2="871.91" y2="690.90" stroke="#9fc1df" stroke-width="0.50" stroke-opacity="0.700" fill="none" />
    <line x1="869.11" y1="690.90" x2="869.11" y2="750.90" stroke="#9fc1df" stroke-width="0.50" stroke-opacity="0.700" fill="none" />
    <line x1="865.03" y1="678.97" x2="862.23" y2="678.97" stroke="#9fc1df" stroke-width="0.50" stroke-opacity="0.700" fill="none" />
    <line x1="865.03" y1="678.97" x2="871.91" y2="690.90" stroke="#9fc1df" stroke-width="0.50" stroke-opacity="0.700" fill="none" />
    <line x1="862.23" y1="678.97" x2="869.11" y2="690.90" stroke="#9fc1df" stroke-width="0.50" stroke-opacity="0.700" fill="none" />
    <line x1="871.91" y1="690.90" x2="869.11" y2="690.90" stroke="#9fc1df" stroke-width="0.50" stroke-opacity="0.700" fill="none" />
  </g>
  <g id="left_wing_west_window_9">
    <line x1="886.49" y1="780.99" x2="889.29" y2="780.99" stroke="#9fc1df" stroke-width="0.50" stroke-opacity="0.700" fill="none" />
    <line x1="889.29" y1="780.99" x2="896.18" y2="792.92" stroke="#9fc1df" stroke-width="0.50" stroke-opacity="0.700" fill="none" />
    <line x1="886.49" y1="780.99" x2="893.38" y2="792.92" stroke="#9fc1df" stroke-width="0.50" stroke-opacity="0.700" fill="none" />
    <line x1="893.38" y1="792.92" x2="896.18" y2="792.92" stroke="#9fc1df" stroke-width="0.50" stroke-opacity="0.700" fill="none" />
    <line x1="889.29" y1="780.99" x2="889.29" y2="720.99" stroke="#9fc1df" stroke-width="0.50" stroke-opacity="0.700" fill="none" />
    <line x1="886.49" y1="720.99" x2="886.49" y2="780.99" stroke="#9fc1df" stroke-width="0.50" stroke-opacity="0.700" fill="none" />
    <line x1="896.18" y1="792.92" x2="896.18" y2="732.92" stroke="#9fc1df" stroke-width="0.50" stroke-opacity="0.700" fill="none" />
    <line x1="893.38" y1="732.92" x2="893.38" y2="792.92" stroke="#9fc1df" stroke-width="0.50" stroke-opacity="0.700" fill="none" />
    <line x1="889.29" y1="720.99" x2="886.49" y2="720.99" stroke="#9fc1df" stroke-width="0.50" stroke-opacity="0.700" fill="none" />
    <line x1="889.29" y1="720.99" x2="896.18" y2="732.92" stroke="#9fc1df" stroke-width="0.50" stroke-opacity="0.700" fill="none" />
    <line x1="886.49" y1="720.99" x2="893.38" y2="732.92" stroke="#9fc1df" stroke-width="0.50" stroke-opacity="0.700" fill="none" />
    <line x1="896.18" y1="732.92" x2="893.38" y2="732.92" stroke="#9fc1df" stroke-width="0.50" stroke-opacity="0.700" fill="none" />
  </g>
  <g id="left_wing_inner_return_shadow">
    <line x1="1082.81" y1="830.15" x2="1090.18" y2="842.92" stroke="#8fa8c4" stroke-width="0.45" stroke-opacity="0.550" fill="none" />
    <line x1="1082.81" y1="842.62" x2="1082.98" y2="842.92" stroke="#8fa8c4" stroke-width="0.45" stroke-opacity="0.550" fill="none" />
    <line x1="1082.98" y1="842.92" x2="1090.18" y2="842.92" stroke="#8fa8c4" stroke-width="0.45" stroke-opacity="0.550" fill="none" />
    <line x1="1090.18" y1="842.92" x2="1090.18" y2="744.92" stroke="#8fa8c4" stroke-width="0.45" stroke-opacity="0.550" fill="none" />
    <line x1="1082.98" y1="744.92" x2="1082.98" y2="842.92" stroke="#8fa8c4" stroke-width="0.45" stroke-opacity="0.550" fill="none" />
    <line x1="1082.81" y1="732.15" x2="1090.18" y2="744.92" stroke="#8fa8c4" stroke-width="0.45" stroke-opacity="0.550" fill="none" />
    <line x1="1082.81" y1="744.62" x2="1082.98" y2="744.92" stroke="#8fa8c4" stroke-width="0.45" stroke-opacity="0.550" fill="none" />
    <line x1="1090.18" y1="744.92" x2="1082.98" y2="744.92" stroke="#8fa8c4" stroke-width="0.45" stroke-opacity="0.550" fill="none" />
  </g>
</svg>